<?xml version="1.0" encoding="utf-8" standalone="no"?>
<!DOCTYPE svg PUBLIC "-//W3C//DTD SVG 1.1//EN"
  "http://www.w3.org/Graphics/SVG/1.1/DTD/svg11.dtd">
<svg xmlns:xlink="http://www.w3.org/1999/xlink" width="648pt" height="288pt" viewBox="0 0 648 288" xmlns="http://www.w3.org/2000/svg" version="1.1">
 <metadata>
  <rdf:RDF xmlns:dc="http://purl.org/dc/elements/1.1/" xmlns:cc="http://creativecommons.org/ns#" xmlns:rdf="http://www.w3.org/1999/02/22-rdf-syntax-ns#">
   <cc:Work>
    <dc:type rdf:resource="http://purl.org/dc/dcmitype/StillImage"/>
    <dc:date>2026-08-22T22:07:29.755105</dc:date>
    <dc:format>image/svg+xml</dc:format>
    <dc:creator>
     <cc:Agent>
      <dc:title>Matplotlib v3.10.9, https://matplotlib.org/</dc:title>
     </cc:Agent>
    </dc:creator>
   </cc:Work>
  </rdf:RDF>
 </metadata>
 <defs>
  <style type="text/css">*{stroke-linejoin: round; stroke-linecap: butt}</style>
 </defs>
 <g id="figure_1">
  <g id="patch_1">
   <path d="M 0 288
L 648 288
L 648 0
L 0 0
z
" style="fill: #ffffff"/>
  </g>
  <g id="axes_1">
   <g id="patch_2">
    <path d="M 28.96 260.12
L 315.81 260.12
L 315.81 49.2
L 28.96 49.2
z
" style="fill: #ffffff"/>
   </g>
   <g id="patch_3">
    <path d="M 41.998636 260.12
L 79.251883 260.12
L 79.251883 96.959339
L 41.998636 96.959339
z
" clip-path="url(#pfd887318da)" style="fill: #4c72b0"/>
   </g>
   <g id="patch_4">
    <path d="M 135.131753 260.12
L 172.385 260.12
L 172.385 206.826317
L 135.131753 206.826317
z
" clip-path="url(#pfd887318da)" style="fill: #4c72b0"/>
   </g>
   <g id="patch_5">
    <path d="M 228.26487 260.12
L 265.518117 260.12
L 265.518117 228.14379
L 228.26487 228.14379
z
" clip-path="url(#pfd887318da)" style="fill: #4c72b0"/>
   </g>
   <g id="patch_6">
    <path d="M 79.251883 260.12
L 116.50513 260.12
L 116.50513 59.24381
L 79.251883 59.24381
z
" clip-path="url(#pfd887318da)" style="fill: #dd8452"/>
   </g>
   <g id="patch_7">
    <path d="M 172.385 260.12
L 209.638247 260.12
L 209.638247 196.16758
L 172.385 196.16758
z
" clip-path="url(#pfd887318da)" style="fill: #dd8452"/>
   </g>
   <g id="patch_8">
    <path d="M 265.518117 260.12
L 302.771364 260.12
L 302.771364 223.224373
L 265.518117 223.224373
z
" clip-path="url(#pfd887318da)" style="fill: #dd8452"/>
   </g>
   <g id="matplotlib.axis_1">
    <g id="xtick_1">
     <g id="line2d_1">
      <defs>
       <path id="m878670a0a3" d="M 0 0
L 0 3.5
" style="stroke: #000000; stroke-width: 0.8"/>
      </defs>
      <g>
       <use xlink:href="#m878670a0a3" x="79.251883" y="260.12" style="stroke: #000000; stroke-width: 0.8"/>
      </g>
     </g>
     <g id="text_1">
      <text style="font-size: 10px; font-family: 'Noto Sans CJK JP', 'Hiragino Sans', sans-serif; text-anchor: middle" x="79.251883" y="275.079375" transform="rotate(-0 79.251883 275.079375)">PPG</text>
     </g>
    </g>
    <g id="xtick_2">
     <g id="line2d_2">
      <g>
       <use xlink:href="#m878670a0a3" x="172.385" y="260.12" style="stroke: #000000; stroke-width: 0.8"/>
      </g>
     </g>
     <g id="text_2">
      <text style="font-size: 10px; font-family: 'Noto Sans CJK JP', 'Hiragino Sans', sans-serif; text-anchor: middle" x="172.385" y="275.079375" transform="rotate(-0 172.385 275.079375)">APG</text>
     </g>
    </g>
    <g id="xtick_3">
     <g id="line2d_3">
      <g>
       <use xlink:href="#m878670a0a3" x="265.518117" y="260.12" style="stroke: #000000; stroke-width: 0.8"/>
      </g>
     </g>
     <g id="text_3">
      <text style="font-size: 10px; font-family: 'Noto Sans CJK JP', 'Hiragino Sans', sans-serif; text-anchor: middle" x="265.518117" y="275.079375" transform="rotate(-0 265.518117 275.079375)">RPG</text>
     </g>
    </g>
   </g>
   <g id="matplotlib.axis_2">
    <g id="ytick_1">
     <g id="line2d_4">
      <defs>
       <path id="m1e1b9f9c3d" d="M 0 0
L -3.5 0
" style="stroke: #000000; stroke-width: 0.8"/>
      </defs>
      <g>
       <use xlink:href="#m1e1b9f9c3d" x="28.96" y="260.12" style="stroke: #000000; stroke-width: 0.8"/>
      </g>
     </g>
     <g id="text_4">
      <text style="font-size: 10px; font-family: 'Noto Sans CJK JP', 'Hiragino Sans', sans-serif; text-anchor: end" x="21.96" y="264.099688" transform="rotate(-0 21.96 264.099688)">0</text>
     </g>
    </g>
    <g id="ytick_2">
     <g id="line2d_5">
      <g>
       <use xlink:href="#m1e1b9f9c3d" x="28.96" y="219.124859" style="stroke: #000000; stroke-width: 0.8"/>
      </g>
     </g>
     <g id="text_5">
      <text style="font-size: 10px; font-family: 'Noto Sans CJK JP', 'Hiragino Sans', sans-serif; text-anchor: end" x="21.96" y="223.104547" transform="rotate(-0 21.96 223.104547)">5</text>
     </g>
    </g>
    <g id="ytick_3">
     <g id="line2d_6">
      <g>
       <use xlink:href="#m1e1b9f9c3d" x="28.96" y="178.129718" style="stroke: #000000; stroke-width: 0.8"/>
      </g>
     </g>
     <g id="text_6">
      <text style="font-size: 10px; font-family: 'Noto Sans CJK JP', 'Hiragino Sans', sans-serif; text-anchor: end" x="21.96" y="182.109406" transform="rotate(-0 21.96 182.109406)">10</text>
     </g>
    </g>
    <g id="ytick_4">
     <g id="line2d_7">
      <g>
       <use xlink:href="#m1e1b9f9c3d" x="28.96" y="137.134577" style="stroke: #000000; stroke-width: 0.8"/>
      </g>
     </g>
     <g id="text_7">
      <text style="font-size: 10px; font-family: 'Noto Sans CJK JP', 'Hiragino Sans', sans-serif; text-anchor: end" x="21.96" y="141.114265" transform="rotate(-0 21.96 141.114265)">15</text>
     </g>
    </g>
    <g id="ytick_5">
     <g id="line2d_8">
      <g>
       <use xlink:href="#m1e1b9f9c3d" x="28.96" y="96.139436" style="stroke: #000000; stroke-width: 0.8"/>
      </g>
     </g>
     <g id="text_8">
      <text style="font-size: 10px; font-family: 'Noto Sans CJK JP', 'Hiragino Sans', sans-serif; text-anchor: end" x="21.96" y="100.119124" transform="rotate(-0 21.96 100.119124)">20</text>
     </g>
    </g>
    <g id="ytick_6">
     <g id="line2d_9">
      <g>
       <use xlink:href="#m1e1b9f9c3d" x="28.96" y="55.144295" style="stroke: #000000; stroke-width: 0.8"/>
      </g>
     </g>
     <g id="text_9">
      <text style="font-size: 10px; font-family: 'Noto Sans CJK JP', 'Hiragino Sans', sans-serif; text-anchor: end" x="21.96" y="59.123983" transform="rotate(-0 21.96 59.123983)">25</text>
     </g>
    </g>
   </g>
   <g id="patch_9">
    <path d="M 28.96 260.12
L 28.96 49.2
" style="fill: none; stroke: #000000; stroke-width: 0.8; stroke-linejoin: miter; stroke-linecap: square"/>
   </g>
   <g id="patch_10">
    <path d="M 315.81 260.12
L 315.81 49.2
" style="fill: none; stroke: #000000; stroke-width: 0.8; stroke-linejoin: miter; stroke-linecap: square"/>
   </g>
   <g id="patch_11">
    <path d="M 28.96 260.12
L 315.81 260.12
" style="fill: none; stroke: #000000; stroke-width: 0.8; stroke-linejoin: miter; stroke-linecap: square"/>
   </g>
   <g id="patch_12">
    <path d="M 28.96 49.2
L 315.81 49.2
" style="fill: none; stroke: #000000; stroke-width: 0.8; stroke-linejoin: miter; stroke-linecap: square"/>
   </g>
   <g id="text_10">
    <text style="font-size: 12px; font-family: 'Noto Sans CJK JP', 'Hiragino Sans', sans-serif; text-anchor: middle" x="172.385" y="43.2" transform="rotate(-0 172.385 43.2)">平均スタッツ比較</text>
   </g>
   <g id="legend_1">
    <g id="patch_13">
     <path d="M 246.81 87.7
L 308.81 87.7
Q 310.81 87.7 310.81 85.7
L 310.81 56.2
Q 310.81 54.2 308.81 54.2
L 246.81 54.2
Q 244.81 54.2 244.81 56.2
L 244.81 85.7
Q 244.81 87.7 246.81 87.7
z
" style="fill: #ffffff; opacity: 0.8; stroke: #cccccc; stroke-linejoin: miter"/>
    </g>
    <g id="patch_14">
     <path d="M 248.81 66.159375
L 268.81 66.159375
L 268.81 59.159375
L 248.81 59.159375
z
" style="fill: #4c72b0"/>
    </g>
    <g id="text_11">
     <text style="font-size: 10px; font-family: 'Noto Sans CJK JP', 'Hiragino Sans', sans-serif; text-anchor: start" x="276.81" y="66.159375" transform="rotate(-0 276.81 66.159375)">実際</text>
    </g>
    <g id="patch_15">
     <path d="M 248.81 81.409375
L 268.81 81.409375
L 268.81 74.409375
L 248.81 74.409375
z
" style="fill: #dd8452"/>
    </g>
    <g id="text_12">
     <text style="font-size: 10px; font-family: 'Noto Sans CJK JP', 'Hiragino Sans', sans-serif; text-anchor: start" x="276.81" y="81.409375" transform="rotate(-0 276.81 81.409375)">もしも</text>
    </g>
   </g>
  </g>
  <g id="axes_2">
   <g id="patch_16">
    <path d="M 350.35 260.12
L 637.2 260.12
L 637.2 49.2
L 350.35 49.2
z
" style="fill: #ffffff"/>
   </g>
   <g id="patch_17">
    <path d="M 363.388636 260.12
L 493.775 260.12
L 493.775 136.692741
L 363.388636 136.692741
z
" clip-path="url(#p047a756d86)" style="fill: #4c72b0"/>
   </g>
   <g id="patch_18">
    <path d="M 493.775 260.12
L 624.161364 260.12
L 624.161364 59.24381
L 493.775 59.24381
z
" clip-path="url(#p047a756d86)" style="fill: #dd8452"/>
   </g>
   <g id="matplotlib.axis_3">
    <g id="xtick_4">
     <g id="line2d_10">
      <g>
       <use xlink:href="#m878670a0a3" x="493.775" y="260.12" style="stroke: #000000; stroke-width: 0.8"/>
      </g>
     </g>
     <g id="text_13">
      <text style="font-size: 10px; font-family: 'Noto Sans CJK JP', 'Hiragino Sans', sans-serif; text-anchor: middle" x="493.775" y="275.079375" transform="rotate(-0 493.775 275.079375)">出場試合数</text>
     </g>
    </g>
   </g>
   <g id="matplotlib.axis_4">
    <g id="ytick_7">
     <g id="line2d_11">
      <g>
       <use xlink:href="#m1e1b9f9c3d" x="350.35" y="260.12" style="stroke: #000000; stroke-width: 0.8"/>
      </g>
     </g>
     <g id="text_14">
      <text style="font-size: 10px; font-family: 'Noto Sans CJK JP', 'Hiragino Sans', sans-serif; text-anchor: end" x="343.35" y="264.099688" transform="rotate(-0 343.35 264.099688)">0</text>
     </g>
    </g>
    <g id="ytick_8">
     <g id="line2d_12">
      <g>
       <use xlink:href="#m1e1b9f9c3d" x="350.35" y="215.480847" style="stroke: #000000; stroke-width: 0.8"/>
      </g>
     </g>
     <g id="text_15">
      <text style="font-size: 10px; font-family: 'Noto Sans CJK JP', 'Hiragino Sans', sans-serif; text-anchor: end" x="343.35" y="219.460534" transform="rotate(-0 343.35 219.460534)">200</text>
     </g>
    </g>
    <g id="ytick_9">
     <g id="line2d_13">
      <g>
       <use xlink:href="#m1e1b9f9c3d" x="350.35" y="170.841693" style="stroke: #000000; stroke-width: 0.8"/>
      </g>
     </g>
     <g id="text_16">
      <text style="font-size: 10px; font-family: 'Noto Sans CJK JP', 'Hiragino Sans', sans-serif; text-anchor: end" x="343.35" y="174.821381" transform="rotate(-0 343.35 174.821381)">400</text>
     </g>
    </g>
    <g id="ytick_10">
     <g id="line2d_14">
      <g>
       <use xlink:href="#m1e1b9f9c3d" x="350.35" y="126.20254" style="stroke: #000000; stroke-width: 0.8"/>
      </g>
     </g>
     <g id="text_17">
      <text style="font-size: 10px; font-family: 'Noto Sans CJK JP', 'Hiragino Sans', sans-serif; text-anchor: end" x="343.35" y="130.182227" transform="rotate(-0 343.35 130.182227)">600</text>
     </g>
    </g>
    <g id="ytick_11">
     <g id="line2d_15">
      <g>
       <use xlink:href="#m1e1b9f9c3d" x="350.35" y="81.563386" style="stroke: #000000; stroke-width: 0.8"/>
      </g>
     </g>
     <g id="text_18">
      <text style="font-size: 10px; font-family: 'Noto Sans CJK JP', 'Hiragino Sans', sans-serif; text-anchor: end" x="343.35" y="85.543074" transform="rotate(-0 343.35 85.543074)">800</text>
     </g>
    </g>
   </g>
   <g id="patch_19">
    <path d="M 350.35 260.12
L 350.35 49.2
" style="fill: none; stroke: #000000; stroke-width: 0.8; stroke-linejoin: miter; stroke-linecap: square"/>
   </g>
   <g id="patch_20">
    <path d="M 637.2 260.12
L 637.2 49.2
" style="fill: none; stroke: #000000; stroke-width: 0.8; stroke-linejoin: miter; stroke-linecap: square"/>
   </g>
   <g id="patch_21">
    <path d="M 350.35 260.12
L 637.2 260.12
" style="fill: none; stroke: #000000; stroke-width: 0.8; stroke-linejoin: miter; stroke-linecap: square"/>
   </g>
   <g id="patch_22">
    <path d="M 350.35 49.2
L 637.2 49.2
" style="fill: none; stroke: #000000; stroke-width: 0.8; stroke-linejoin: miter; stroke-linecap: square"/>
   </g>
   <g id="text_19">
    <text style="font-size: 12px; font-family: 'Noto Sans CJK JP', 'Hiragino Sans', sans-serif; text-anchor: middle" x="493.775" y="43.2" transform="rotate(-0 493.775 43.2)">キャリア出場試合数</text>
   </g>
   <g id="legend_2">
    <g id="patch_23">
     <path d="M 357.35 87.7
L 419.35 87.7
Q 421.35 87.7 421.35 85.7
L 421.35 56.2
Q 421.35 54.2 419.35 54.2
L 357.35 54.2
Q 355.35 54.2 355.35 56.2
L 355.35 85.7
Q 355.35 87.7 357.35 87.7
z
" style="fill: #ffffff; opacity: 0.8; stroke: #cccccc; stroke-linejoin: miter"/>
    </g>
    <g id="patch_24">
     <path d="M 359.35 66.159375
L 379.35 66.159375
L 379.35 59.159375
L 359.35 59.159375
z
" style="fill: #4c72b0"/>
    </g>
    <g id="text_20">
     <text style="font-size: 10px; font-family: 'Noto Sans CJK JP', 'Hiragino Sans', sans-serif; text-anchor: start" x="387.35" y="66.159375" transform="rotate(-0 387.35 66.159375)">実際</text>
    </g>
    <g id="patch_25">
     <path d="M 359.35 81.409375
L 379.35 81.409375
L 379.35 74.409375
L 359.35 74.409375
z
" style="fill: #dd8452"/>
    </g>
    <g id="text_21">
     <text style="font-size: 10px; font-family: 'Noto Sans CJK JP', 'Hiragino Sans', sans-serif; text-anchor: start" x="387.35" y="81.409375" transform="rotate(-0 387.35 81.409375)">もしも</text>
    </g>
   </g>
  </g>
  <g id="text_22">
   <text style="font-size: 12px; font-family: 'Noto Sans CJK JP', 'Hiragino Sans', sans-serif; text-anchor: middle" x="324" y="15.31125" transform="rotate(-0 324 15.31125)">デリック・ローズ 個人成績比較（実際 vs もしも）</text>
  </g>
 </g>
 <defs>
  <clipPath id="pfd887318da">
   <rect x="28.96" y="49.2" width="286.85" height="210.92"/>
  </clipPath>
  <clipPath id="p047a756d86">
   <rect x="350.35" y="49.2" width="286.85" height="210.92"/>
  </clipPath>
 </defs>
</svg>
